<svg width="2600" height="2600" viewBox="0 0 2600 2600" fill="none" xmlns="http://www.w3.org/2000/svg">
<rect width="2600" height="2600" fill="#172636"/>
<g clip-path="url(#clip0_1_23)">
<path d="M1056.47 583.8C1044.87 586.867 1035.13 594.067 1036.73 598.333C1037.93 601.267 1040.73 600.867 1048.07 596.2C1052.2 593.667 1058.07 591.533 1063.4 590.6C1072.6 589.133 1074.87 587.133 1071.53 583.667C1069 581.267 1065.93 581.267 1056.47 583.8Z" fill="#E5DFD9"/>
<path d="M1092.47 596.867C1091.13 598.333 1091.67 600.333 1095 606.2C1097.27 610.2 1099.67 616.467 1100.07 619.933C1100.87 625.667 1101.4 626.333 1104.33 626.333C1107.53 626.333 1107.67 625.933 1107.53 619.533C1107.27 612.067 1103.53 602.2 1099.13 597.8C1095.8 594.467 1094.6 594.333 1092.47 596.867Z" fill="#E5DFD9"/>
<path d="M1059.4 611C1054.07 614.2 1052.33 617.4 1052.33 624.333C1052.33 628.733 1053.13 630.733 1056.2 633.8C1058.33 635.933 1061.93 638.067 1064.07 638.467C1067.67 639.133 1068.2 640.2 1073.4 656.867C1076.47 666.6 1079.27 675.4 1079.67 676.6C1080.2 678.067 1078.73 679.267 1074.07 681C1064.87 684.467 1044.73 694.6 1037.67 699.4C1019.13 711.933 1007 724.467 999.8 738.6C993.267 751.8 992.334 758.2 992.334 793.667C992.334 854.467 997.534 888.467 1010.07 909.533C1014.47 916.733 1025.27 927.533 1030.73 930.067C1033.8 931.533 1034.73 933.667 1032.2 933.667C1029.13 933.667 1018.6 942.333 1014.2 948.333C1010.47 953.533 1008.2 955.267 1002.6 957.133C991 960.867 972.067 970.467 959.134 979.133C929.8 998.733 905.267 1031.13 893.667 1065.67C886.867 1085.93 881.934 1119.8 883.534 1136.6L884.334 1145.67L879.4 1148.87C872.467 1153.13 869 1157.27 865.8 1164.33C860.067 1177.4 860.867 1195.8 867.934 1210.73C871.8 1219 875.8 1222.07 882.067 1221.53C885.4 1221.27 887.667 1222.07 890.867 1224.73C895.667 1228.73 898.6 1229.27 902.334 1226.47C904.467 1225 905.4 1225 909.267 1227.27C915.267 1230.87 920.334 1229.67 920.334 1224.73C920.334 1222.87 918.2 1216.2 915.4 1209.93C908.734 1194.2 909 1183 916.334 1183C918.6 1183 920.334 1185.8 924.2 1195.8C927 1203 936.067 1205.27 939.667 1199.8C942.467 1195.67 941.4 1186.6 936.2 1170.2C931.267 1154.6 925.8 1147.93 915.534 1144.87L908.334 1142.87V1127.13C908.334 1074.2 931.667 1027 971.267 1000.2C979.934 994.333 1001.13 983 1003.53 983C1004.6 983 1005 993 1005 1014.07C1005.13 1040.6 1005.53 1047.13 1008.07 1059.93C1016.47 1102.07 1034.2 1131.67 1057.93 1143.4C1066.33 1147.53 1068.07 1149 1070.33 1153.93C1074.2 1162.33 1087.53 1175.27 1097.4 1180.2L1105.67 1184.33V1258.73C1105.53 1309.8 1105.13 1332.33 1104.2 1330.6C1102.33 1327.53 1093.53 1327.53 1090.73 1330.6C1089.53 1331.93 1088.33 1335.27 1087.8 1337.93C1087.27 1340.73 1086.2 1343.4 1085.4 1343.8C1084.47 1344.33 1078.2 1345.67 1071.27 1346.6C1050.33 1349.4 1038.87 1356.2 1032.87 1369C1029.13 1377 1028.6 1388.87 1031.8 1393.4L1033.8 1396.33H1087.13C1138.07 1396.33 1140.47 1396.2 1142.87 1393.8C1146.47 1390.2 1147.4 1383.8 1146.73 1367.93C1146.07 1353.13 1144.2 1347.93 1138.2 1343.13C1136.2 1341.53 1133.53 1340.33 1132.2 1340.33C1129.8 1340.33 1129.67 1337.67 1129.67 1264.33V1188.33L1132.73 1189C1138.87 1190.33 1169.27 1193.8 1192.07 1195.67C1264.07 1201.8 1371.53 1198.2 1439.4 1187.53L1444.33 1186.73V1263.53C1444.33 1337.53 1444.2 1340.33 1441.8 1340.33C1438.47 1340.33 1432.73 1345 1430.2 1349.93C1427.8 1354.73 1426.2 1375.53 1427.53 1384.87C1429.4 1396.87 1426.33 1396.33 1486.87 1396.33H1540.2L1542.2 1393.4C1543.4 1391.67 1544.33 1387.67 1544.33 1383.8C1544.33 1363.27 1530.2 1350.2 1504.07 1346.87C1488.6 1344.87 1487.4 1344.2 1486.33 1337.67C1485.8 1334.73 1484.6 1331.4 1483.4 1330.33C1480.6 1327.53 1471.53 1327.67 1469.8 1330.6C1468.87 1332.33 1468.47 1309 1468.33 1256.07V1179.27L1475.13 1174.2C1483.13 1168.33 1490.87 1158.47 1495.67 1147.93C1497.67 1143.8 1499.67 1140.33 1500.33 1140.33C1503 1140.33 1516.73 1126.07 1522.47 1117.53C1540.2 1090.73 1549 1052.2 1548.07 1005.4L1547.67 981.667L1558.33 978.2C1594.73 966.2 1626.73 942.467 1647 912.2C1656.73 897.667 1660.47 890.467 1666.33 875.133C1674.47 854.2 1680.2 824.867 1680.33 804.733C1680.33 796.6 1680.33 796.467 1684.47 795.667C1686.73 795.133 1691.53 791.933 1695 788.467C1703.13 780.6 1707 770.6 1707 757.533C1707 743 1703 736.333 1694.33 736.333C1692.07 736.333 1689.67 734.867 1687.4 732.333C1683.93 728.2 1680.6 727.4 1676.47 729.667C1674.2 730.733 1673.93 729.933 1673.13 720.067C1672.07 707.4 1669.4 700.6 1664.87 699.533C1660.6 698.467 1658.33 699.533 1655.4 703.933C1653.27 707.133 1653 710.733 1653 733C1652.87 746.867 1652.47 759.667 1651.8 761.267C1651.13 763.533 1649.8 764.333 1647 764.333C1642.07 764.333 1639.4 760.6 1637.53 750.733C1635.8 742.2 1634.07 739.933 1628.73 739.933C1623 739.933 1620.33 744.6 1620.33 754.333C1620.33 770.2 1632.47 787 1649 793.8L1656.47 796.867L1655.53 808.2C1650.07 883.933 1612.07 936.333 1548.73 955.667L1543.13 957.4L1539.13 950.467C1535.27 943.667 1529.13 937.933 1522.47 934.867C1517.93 932.733 1518.07 932.067 1523.8 929C1530.73 925.267 1541 913.4 1545.53 903.933C1555.8 882.333 1559 860.2 1559.93 804.2C1560.73 755.533 1560.47 753.4 1551.4 735.933C1527 689.4 1438.87 657 1312.33 648.2C1251.53 643.933 1164.47 653 1109.13 669.267C1100.33 671.8 1091.8 674.2 1090.2 674.6C1087.8 675.133 1086.87 673.267 1081.53 656.067L1075.53 637L1078.6 632.467C1083.93 624.733 1081.67 614.467 1073.67 610.333C1068.47 607.667 1064.6 607.8 1059.4 611ZM1355 722.333C1455.8 730.6 1515.13 748.333 1530.6 774.6C1535 782.2 1535.93 793.533 1533.8 817.4C1529.53 864.867 1516.33 877.267 1465.67 881.533C1412.6 885.933 1180.73 887 1115.67 883C1060.6 879.8 1045.53 874.467 1035.27 855.267C1028.87 843.267 1026.87 833.133 1026.07 807.4C1025.4 787.8 1025.67 783.4 1027.53 778.467C1031.27 768.6 1043.27 758.333 1059.53 751C1093.27 735.933 1153.27 725.267 1232.33 720.333C1258.47 718.733 1324.73 719.8 1355 722.333Z" fill="#E5DFD9"/>
<path d="M1125.67 781.533C1120.6 786.467 1119.67 790.867 1122.07 796.733C1126.2 806.333 1138.2 808.2 1144.87 800.2C1155.93 787.133 1137.67 769.533 1125.67 781.533Z" fill="#E5DFD9"/>
<path d="M1417.8 779.533C1410.6 783.533 1408.87 793.667 1414.47 800.2C1420.87 807.933 1432.47 806.467 1437.13 797.533C1443.27 785.667 1429.53 773 1417.8 779.533Z" fill="#E5DFD9"/>
<path d="M1301.13 816.6C1299.93 818.2 1299 820.867 1299 822.333C1298.87 827.4 1293.93 836.067 1289.8 838.2C1278.07 844.333 1267.13 837.4 1263.8 821.4C1263.27 818.867 1261.8 817.4 1259.53 816.867C1252.07 815 1249.67 824.467 1255 834.867C1265.4 855 1291.93 858.6 1304.33 841.4C1308.07 836.333 1309.53 832.333 1311.67 822.2C1313.13 814.733 1305.27 810.6 1301.13 816.6Z" fill="#E5DFD9"/>
<path d="M1027 618.333C1024.33 621.533 1026.2 634.733 1030.2 642.6C1033.53 649.4 1035.53 651.133 1038.73 649.933C1041.13 649.133 1040.73 645.667 1037 638.467C1034.87 634.2 1033.67 629.667 1033.67 625.533C1033.67 620.6 1033.13 618.733 1031.13 617.8C1029.27 616.733 1028.2 616.867 1027 618.333Z" fill="#E5DFD9"/>
<path d="M1962.33 1614.47C1938.47 1616.87 1921.13 1624.47 1907 1638.87C1895.8 1650.2 1890.47 1659.53 1885.4 1677L1882.33 1687.67V1813C1882.33 1953.93 1881.8 1946.07 1892.47 1968.2C1902.33 1988.47 1920.47 2002.87 1944.33 2009.27C1956.47 2012.6 1990.87 2012.6 2003 2009.27C2032.87 2001.27 2052.33 1981.93 2061.93 1951L2065 1941L2065.4 1818.07C2065.67 1701.53 2065.67 1694.47 2063.27 1682.73C2055.93 1647.4 2033.53 1623.67 2000.87 1617C1990.73 1615 1970.73 1613.67 1962.33 1614.47ZM1985 1671.13C1991.53 1673 2000.33 1681.67 2003 1689C2004.6 1693.53 2005 1712.6 2005.4 1807C2005.67 1882.47 2005.27 1922.73 2004.33 1929C2001.4 1947.8 1991.8 1956.6 1973.8 1956.6C1958.2 1956.6 1950.2 1951.27 1944.73 1937.4C1942.6 1932.2 1942.33 1921.53 1941.93 1821.8C1941.67 1752.87 1942.07 1707.67 1942.87 1700.87C1944.87 1684.2 1950.33 1675.53 1961.27 1671.67C1967.4 1669.4 1977.8 1669.13 1985 1671.13Z" fill="#E5DFD9"/>
<path d="M319 1813.8V2007.13L376.733 2006.73C431.8 2006.2 434.733 2006.07 444.333 2003.13C471.8 1994.87 489.133 1977.8 497.4 1950.87C502.733 1933.4 503.133 1921.13 502.733 1804.33C502.2 1694.87 502.067 1692.87 499.267 1681.93C496.467 1671.53 491 1658.6 486.333 1651.93C480.6 1643.53 469.667 1634.47 459.667 1629.67C441.933 1621 435.933 1620.33 373.667 1620.33H319V1813.8ZM426.6 1678.73C433.267 1682.2 438.333 1689.27 440.2 1697.67C441.133 1701.53 441.667 1743.53 441.667 1813.8C441.667 1933.93 441.8 1932.6 434.067 1941.8C427.533 1949.53 422.067 1951 400.067 1951H380.333V1812.87V1674.73L400.733 1675.27C418.6 1675.67 421.667 1676.07 426.6 1678.73Z" fill="#E5DFD9"/>
<path d="M543 1813.67V2007H626.333H709.667V1979V1951H657H604.333V1891.67V1832.33H646.333H688.333V1805V1777.67H646.333H604.333V1726.33V1675H657H709.667V1647.67V1620.33H626.333H543V1813.67Z" fill="#E5DFD9"/>
<path d="M744.333 1813.53V2007H775H805.667V1928.47V1850.07L830.067 1849.27C848.2 1848.73 856.867 1847.93 864.467 1845.93C891.8 1838.73 909.8 1822.2 918.2 1796.6C923.8 1779.53 924.6 1769.93 923.934 1727.8C923.4 1692.73 923.134 1688.07 920.467 1679C911.934 1650.47 896.334 1633.4 870.6 1624.73L859.667 1621L802.067 1620.6L744.333 1620.2V1813.53ZM844.734 1676.47C851.8 1678.33 858.334 1684.73 861 1692.07C863.934 1700.2 865.4 1747.4 863.134 1764.87C860.2 1788.73 853.934 1793.4 824.067 1793.53L805.667 1793.67V1734.33V1675H822.734C832.067 1675 841.934 1675.67 844.734 1676.47Z" fill="#E5DFD9"/>
<path d="M957.667 1813.67V2007H1038.33H1119L1118.73 1979.27L1118.33 1951.67L1068.73 1951.27L1019 1951V1785.67V1620.33H988.333H957.667V1813.67Z" fill="#E5DFD9"/>
<path d="M1148.33 1813.67V2007H1178.33H1208.33V1813.67V1620.33H1178.33H1148.33V1813.67Z" fill="#E5DFD9"/>
<path d="M1253.67 1813.67V2007H1284.33H1315L1315.27 1922.6L1315.67 1838.33L1354.73 1837.93L1393.67 1837.67V1810.33V1783H1354.33H1315V1729V1675H1365H1415V1647.67V1620.33H1334.33H1253.67V1813.67Z" fill="#E5DFD9"/>
<path d="M1427.53 1622.33C1427.93 1623.53 1444.47 1673.4 1464.33 1733.27L1500.33 1842.2V1924.6V2007H1531H1561.67V1923.93V1841L1598.2 1730.6L1634.6 1620.33H1605H1575.4L1570.73 1635.93C1568.2 1644.6 1559 1676.47 1550.2 1706.6C1541.53 1736.87 1534.07 1761.67 1533.67 1761.67C1533.27 1761.67 1523.67 1729.8 1512.33 1691L1491.8 1620.33H1459.27C1430.6 1620.33 1426.87 1620.6 1427.53 1622.33Z" fill="#E5DFD9"/>
<path d="M1663 1813.67V2007.13L1721.4 2006.73C1776.33 2006.2 1780.2 2006.07 1790.07 2003.27C1821.13 1994.6 1839.67 1975.93 1847 1945.53C1852.73 1921.93 1851.93 1865.67 1845.53 1844.73C1839.93 1826.6 1828.33 1812.2 1813.13 1804.73C1809 1802.73 1805.67 1800.73 1805.67 1800.2C1805.67 1799.8 1808.2 1798.2 1811.27 1796.87C1824.07 1791.13 1836.07 1774.47 1841.27 1755C1844.73 1742.47 1844.6 1690.6 1841.27 1677C1834.07 1648.6 1817.67 1631.8 1789 1623.4C1782.07 1621.4 1773.13 1621.13 1722.07 1620.6L1663 1620.2V1813.67ZM1767.8 1678.07C1773.93 1681.27 1778.6 1687.53 1781 1695.27C1783.67 1704.47 1783.8 1746.47 1781.13 1755.4C1778.33 1764.6 1774.07 1769.67 1765.8 1773.4C1759.27 1776.47 1756.2 1777 1740.73 1777.4L1723 1777.93V1726.33V1674.73L1743.4 1675.27C1759 1675.67 1764.6 1676.33 1767.8 1678.07ZM1761.13 1833.8C1772.33 1835.8 1779.13 1840.2 1783.4 1847.93C1788.6 1857.53 1789.93 1869.93 1789.4 1901.4C1789 1927.93 1788.87 1929.27 1785.53 1936.47C1783 1941.67 1780.47 1944.87 1776.87 1947.13C1771.93 1950.2 1770.33 1950.33 1747.4 1950.73L1723 1951.27V1891.8V1832.33H1738.07C1746.33 1832.33 1756.73 1833 1761.13 1833.8Z" fill="#E5DFD9"/>
<path d="M2088.33 1647.67V1675H2120.33H2152.33V1841V2007H2183H2213.67V1841V1675H2245H2276.33V1647.67V1620.33H2182.33H2088.33V1647.67Z" fill="#E5DFD9"/>
</g>
<defs>
<clipPath id="clip0_1_23">
<rect width="2000" height="2000" fill="white" transform="translate(300 300)"/>
</clipPath>
</defs>
</svg>
