<svg width="5200" height="2400" viewBox="0 0 5200 2400" fill="none" xmlns="http://www.w3.org/2000/svg">
<rect width="5200" height="2400" fill="#172636"/>
<path d="M1188.78 1904.67C1187.61 1901.09 1186.07 1897.87 1184.15 1895.03C1182.27 1892.16 1180.01 1889.71 1177.38 1887.68C1174.79 1885.66 1171.85 1884.11 1168.54 1883.05C1165.24 1881.98 1161.62 1881.45 1157.68 1881.45C1151.21 1881.45 1145.34 1883.12 1140.04 1886.46C1134.75 1889.8 1130.55 1894.71 1127.42 1901.21C1124.3 1907.71 1122.73 1915.68 1122.73 1925.13C1122.73 1934.58 1124.31 1942.55 1127.47 1949.05C1130.63 1955.54 1134.91 1960.46 1140.31 1963.8C1145.71 1967.14 1151.78 1968.81 1158.53 1968.81C1164.78 1968.81 1170.28 1967.48 1175.04 1964.81C1179.84 1962.11 1183.56 1958.31 1186.23 1953.41C1188.93 1948.48 1190.28 1942.67 1190.28 1936L1194.32 1936.85H1161.51V1925.13H1203.06V1936.85C1203.06 1945.83 1201.14 1953.64 1197.31 1960.29C1193.51 1966.93 1188.25 1972.08 1181.54 1975.73C1174.86 1979.35 1167.19 1981.17 1158.53 1981.17C1148.87 1981.17 1140.38 1978.89 1133.07 1974.35C1125.79 1969.8 1120.11 1963.34 1116.02 1954.96C1111.97 1946.58 1109.95 1936.63 1109.95 1925.13C1109.95 1916.5 1111.1 1908.74 1113.41 1901.85C1115.75 1894.93 1119.06 1889.03 1123.32 1884.17C1127.58 1879.3 1132.62 1875.57 1138.45 1872.98C1144.27 1870.39 1150.68 1869.09 1157.68 1869.09C1163.43 1869.09 1168.79 1869.96 1173.76 1871.7C1178.77 1873.41 1183.23 1875.84 1187.13 1879C1191.07 1882.12 1194.36 1885.87 1196.99 1890.24C1199.62 1894.57 1201.43 1899.38 1202.42 1904.67H1188.78ZM1229.11 1979.67V1897.86H1241.68V1979.67H1229.11ZM1235.5 1884.22C1233.05 1884.22 1230.94 1883.39 1229.16 1881.72C1227.42 1880.05 1226.55 1878.04 1226.55 1875.7C1226.55 1873.35 1227.42 1871.35 1229.16 1869.68C1230.94 1868.01 1233.05 1867.17 1235.5 1867.17C1237.95 1867.17 1240.04 1868.01 1241.78 1869.68C1243.56 1871.35 1244.45 1873.35 1244.45 1875.7C1244.45 1878.04 1243.56 1880.05 1241.78 1881.72C1240.04 1883.39 1237.95 1884.22 1235.5 1884.22ZM1300.29 1897.86V1908.51H1257.88V1897.86H1300.29ZM1270.24 1878.25H1282.81V1956.24C1282.81 1959.79 1283.33 1962.45 1284.36 1964.23C1285.42 1965.97 1286.77 1967.14 1288.41 1967.74C1290.08 1968.31 1291.83 1968.6 1293.68 1968.6C1295.07 1968.6 1296.2 1968.52 1297.09 1968.38C1297.98 1968.2 1298.69 1968.06 1299.22 1967.96L1301.78 1979.25C1300.92 1979.57 1299.73 1979.89 1298.21 1980.21C1296.68 1980.56 1294.75 1980.74 1292.4 1980.74C1288.85 1980.74 1285.37 1979.98 1281.96 1978.45C1278.59 1976.92 1275.78 1974.6 1273.55 1971.47C1271.34 1968.35 1270.24 1964.4 1270.24 1959.65V1878.25ZM1322.66 1979.67V1870.58H1335.87V1919.16H1394.04V1870.58H1407.25V1979.67H1394.04V1930.88H1335.87V1979.67H1322.66ZM1483.55 1946.22V1897.86H1496.12V1979.67H1483.55V1965.83H1482.7C1480.78 1969.98 1477.8 1973.51 1473.75 1976.43C1469.7 1979.3 1464.59 1980.74 1458.41 1980.74C1453.29 1980.74 1448.75 1979.62 1444.77 1977.38C1440.79 1975.11 1437.67 1971.7 1435.4 1967.16C1433.12 1962.58 1431.99 1956.81 1431.99 1949.85V1897.86H1444.56V1948.99C1444.56 1954.96 1446.23 1959.72 1449.57 1963.27C1452.94 1966.82 1457.24 1968.6 1462.46 1968.6C1465.58 1968.6 1468.76 1967.8 1471.99 1966.2C1475.26 1964.6 1477.99 1962.15 1480.19 1958.85C1482.43 1955.54 1483.55 1951.34 1483.55 1946.22ZM1520.85 1979.67V1870.58H1533.42V1910.85H1534.49C1535.41 1909.43 1536.69 1907.62 1538.32 1905.42C1539.99 1903.18 1542.37 1901.19 1545.46 1899.45C1548.59 1897.68 1552.81 1896.79 1558.14 1896.79C1565.03 1896.79 1571.1 1898.51 1576.36 1901.96C1581.61 1905.4 1585.71 1910.29 1588.66 1916.61C1591.61 1922.93 1593.08 1930.38 1593.08 1938.98C1593.08 1947.64 1591.61 1955.15 1588.66 1961.51C1585.71 1967.83 1581.63 1972.73 1576.41 1976.21C1571.19 1979.66 1565.17 1981.38 1558.35 1981.38C1553.1 1981.38 1548.89 1980.51 1545.73 1978.77C1542.57 1976.99 1540.13 1974.99 1538.43 1972.75C1536.72 1970.48 1535.41 1968.6 1534.49 1967.1H1533V1979.67H1520.85ZM1533.21 1938.77C1533.21 1944.94 1534.11 1950.4 1535.93 1955.12C1537.74 1959.81 1540.38 1963.48 1543.86 1966.14C1547.34 1968.77 1551.6 1970.09 1556.65 1970.09C1561.9 1970.09 1566.29 1968.7 1569.8 1965.93C1573.35 1963.13 1576.02 1959.36 1577.79 1954.64C1579.6 1949.88 1580.51 1944.59 1580.51 1938.77C1580.51 1933.01 1579.62 1927.83 1577.85 1923.21C1576.11 1918.56 1573.46 1914.88 1569.91 1912.19C1566.39 1909.45 1561.97 1908.08 1556.65 1908.08C1551.53 1908.08 1547.24 1909.38 1543.76 1911.97C1540.28 1914.53 1537.65 1918.12 1535.87 1922.73C1534.1 1927.31 1533.21 1932.66 1533.21 1938.77ZM1685.39 1981.17C1678.22 1981.17 1672.04 1979.85 1666.86 1977.22C1661.67 1974.6 1657.68 1970.99 1654.87 1966.41C1652.07 1961.83 1650.66 1956.59 1650.66 1950.7C1650.66 1946.15 1651.62 1942.12 1653.54 1938.61C1655.49 1935.05 1658.17 1931.77 1661.58 1928.75C1665.03 1925.7 1668.99 1922.64 1673.46 1919.59L1689.23 1907.87C1692.32 1905.85 1694.79 1903.68 1696.63 1901.37C1698.51 1899.06 1699.46 1896.05 1699.46 1892.32C1699.46 1889.55 1698.23 1886.87 1695.78 1884.27C1693.37 1881.68 1690.19 1880.38 1686.25 1880.38C1683.48 1880.38 1681.02 1881.1 1678.89 1882.52C1676.8 1883.9 1675.15 1885.68 1673.94 1887.84C1672.77 1889.97 1672.18 1892.17 1672.18 1894.45C1672.18 1897 1672.88 1899.6 1674.26 1902.22C1675.68 1904.82 1677.47 1907.48 1679.64 1910.21C1681.84 1912.91 1684.11 1915.68 1686.46 1918.52L1736.53 1979.67H1721.4L1680.07 1929.82C1676.23 1925.2 1672.75 1921.01 1669.63 1917.25C1666.5 1913.48 1664.01 1909.77 1662.17 1906.11C1660.32 1902.46 1659.4 1898.5 1659.4 1894.23C1659.4 1889.33 1660.48 1885.04 1662.65 1881.34C1664.85 1877.61 1667.92 1874.72 1671.86 1872.66C1675.84 1870.57 1680.49 1869.52 1685.82 1869.52C1691.29 1869.52 1695.99 1870.58 1699.93 1872.71C1703.88 1874.81 1706.91 1877.6 1709.04 1881.08C1711.17 1884.52 1712.24 1888.27 1712.24 1892.32C1712.24 1897.54 1710.94 1902.06 1708.35 1905.9C1705.76 1909.73 1702.23 1913.3 1697.75 1916.61L1676.02 1932.8C1671.12 1936.42 1667.8 1939.94 1666.06 1943.35C1664.32 1946.76 1663.45 1949.21 1663.45 1950.7C1663.45 1954.11 1664.33 1957.28 1666.11 1960.23C1667.89 1963.18 1670.39 1965.56 1673.62 1967.37C1676.85 1969.18 1680.63 1970.09 1684.97 1970.09C1689.09 1970.09 1693.1 1969.22 1697 1967.48C1700.91 1965.7 1704.44 1963.14 1707.61 1959.81C1710.8 1956.47 1713.32 1952.46 1715.17 1947.77C1717.05 1943.08 1717.99 1937.81 1717.99 1931.95H1730.14C1730.14 1939.19 1729.3 1945.1 1727.63 1949.69C1725.96 1954.27 1724.08 1957.85 1721.99 1960.45C1719.89 1963.04 1718.21 1964.97 1716.93 1966.25C1716.5 1966.78 1716.11 1967.32 1715.75 1967.85C1715.4 1968.38 1715.01 1968.91 1714.58 1969.45C1711.07 1973.39 1706.63 1976.34 1701.27 1978.29C1695.9 1980.21 1690.61 1981.17 1685.39 1981.17ZM1828 1979.67H1794.34V1870.58H1829.49C1840.08 1870.58 1849.13 1872.77 1856.66 1877.14C1864.19 1881.47 1869.96 1887.7 1873.97 1895.83C1877.98 1903.93 1879.99 1913.62 1879.99 1924.92C1879.99 1936.28 1877.97 1946.06 1873.92 1954.27C1869.87 1962.43 1863.97 1968.72 1856.23 1973.12C1848.49 1977.49 1839.08 1979.67 1828 1979.67ZM1807.55 1967.96H1827.15C1836.17 1967.96 1843.64 1966.22 1849.58 1962.74C1855.51 1959.26 1859.93 1954.3 1862.84 1947.87C1865.75 1941.45 1867.21 1933.79 1867.21 1924.92C1867.21 1916.11 1865.77 1908.53 1862.89 1902.17C1860.02 1895.78 1855.72 1890.88 1850 1887.47C1844.28 1884.02 1837.16 1882.3 1828.64 1882.3H1807.55V1967.96ZM1933.68 1981.38C1926.3 1981.38 1919.82 1979.62 1914.24 1976.11C1908.7 1972.59 1904.37 1967.67 1901.24 1961.35C1898.15 1955.03 1896.61 1947.64 1896.61 1939.19C1896.61 1930.67 1898.15 1923.23 1901.24 1916.87C1904.37 1910.52 1908.7 1905.58 1914.24 1902.06C1919.82 1898.55 1926.3 1896.79 1933.68 1896.79C1941.07 1896.79 1947.53 1898.55 1953.07 1902.06C1958.65 1905.58 1962.98 1910.52 1966.07 1916.87C1969.2 1923.23 1970.76 1930.67 1970.76 1939.19C1970.76 1947.64 1969.2 1955.03 1966.07 1961.35C1962.98 1967.67 1958.65 1972.59 1953.07 1976.11C1947.53 1979.62 1941.07 1981.38 1933.68 1981.38ZM1933.68 1970.09C1939.29 1970.09 1943.91 1968.65 1947.53 1965.77C1951.16 1962.9 1953.84 1959.11 1955.58 1954.43C1957.32 1949.74 1958.19 1944.66 1958.19 1939.19C1958.19 1933.72 1957.32 1928.63 1955.58 1923.9C1953.84 1919.18 1951.16 1915.36 1947.53 1912.45C1943.91 1909.54 1939.29 1908.08 1933.68 1908.08C1928.07 1908.08 1923.46 1909.54 1919.83 1912.45C1916.21 1915.36 1913.53 1919.18 1911.79 1923.9C1910.05 1928.63 1909.18 1933.72 1909.18 1939.19C1909.18 1944.66 1910.05 1949.74 1911.79 1954.43C1913.53 1959.11 1916.21 1962.9 1919.83 1965.77C1923.46 1968.65 1928.07 1970.09 1933.68 1970.09ZM2023.19 1981.38C2015.52 1981.38 2008.91 1979.57 2003.37 1975.95C1997.83 1972.32 1993.57 1967.33 1990.59 1960.98C1987.6 1954.62 1986.11 1947.36 1986.11 1939.19C1986.11 1930.88 1987.64 1923.55 1990.69 1917.19C1993.78 1910.8 1998.08 1905.81 2003.58 1902.22C2009.12 1898.6 2015.59 1896.79 2022.97 1896.79C2028.73 1896.79 2033.91 1897.86 2038.53 1899.99C2043.14 1902.12 2046.93 1905.1 2049.87 1908.94C2052.82 1912.77 2054.65 1917.25 2055.36 1922.36H2042.79C2041.83 1918.63 2039.7 1915.33 2036.4 1912.45C2033.13 1909.54 2028.73 1908.08 2023.19 1908.08C2018.29 1908.08 2013.99 1909.36 2010.3 1911.92C2006.64 1914.44 2003.78 1918.01 2001.72 1922.63C1999.69 1927.21 1998.68 1932.59 1998.68 1938.77C1998.68 1945.09 1999.68 1950.59 2001.67 1955.28C2003.69 1959.97 2006.53 1963.61 2010.19 1966.2C2013.88 1968.79 2018.21 1970.09 2023.19 1970.09C2026.45 1970.09 2029.42 1969.52 2032.08 1968.38C2034.74 1967.25 2037 1965.61 2038.85 1963.48C2040.69 1961.35 2042.01 1958.79 2042.79 1955.81H2055.36C2054.65 1960.64 2052.89 1964.99 2050.09 1968.86C2047.32 1972.7 2043.64 1975.75 2039.06 1978.02C2034.51 1980.26 2029.22 1981.38 2023.19 1981.38ZM2085.45 1949.85L2085.24 1934.29H2087.8L2123.59 1897.86H2139.15L2101.01 1936.42H2099.94L2085.45 1949.85ZM2073.74 1979.67V1870.58H2086.31V1979.67H2073.74ZM2125.72 1979.67L2093.76 1939.19L2102.71 1930.46L2141.7 1979.67H2125.72ZM2186.26 1981.38C2178.38 1981.38 2171.58 1979.64 2165.86 1976.16C2160.18 1972.64 2155.79 1967.74 2152.7 1961.46C2149.65 1955.14 2148.12 1947.79 2148.12 1939.4C2148.12 1931.02 2149.65 1923.64 2152.7 1917.25C2155.79 1910.82 2160.09 1905.81 2165.6 1902.22C2171.13 1898.6 2177.6 1896.79 2184.98 1896.79C2189.25 1896.79 2193.45 1897.5 2197.61 1898.92C2201.76 1900.34 2205.55 1902.65 2208.95 1905.85C2212.36 1909.01 2215.08 1913.2 2217.1 1918.42C2219.13 1923.64 2220.14 1930.07 2220.14 1937.7V1943.03H2157.07V1932.16H2207.36C2207.36 1927.54 2206.43 1923.42 2204.59 1919.8C2202.78 1916.18 2200.18 1913.32 2196.81 1911.23C2193.47 1909.13 2189.53 1908.08 2184.98 1908.08C2179.98 1908.08 2175.64 1909.33 2171.99 1911.81C2168.37 1914.26 2165.58 1917.46 2163.62 1921.4C2161.67 1925.34 2160.69 1929.57 2160.69 1934.08V1941.32C2160.69 1947.5 2161.76 1952.74 2163.89 1957.04C2166.06 1961.3 2169.06 1964.55 2172.89 1966.78C2176.73 1968.99 2181.18 1970.09 2186.26 1970.09C2189.57 1970.09 2192.55 1969.62 2195.21 1968.7C2197.91 1967.74 2200.24 1966.32 2202.19 1964.44C2204.14 1962.52 2205.65 1960.14 2206.72 1957.3L2218.86 1960.71C2217.58 1964.83 2215.44 1968.45 2212.42 1971.58C2209.4 1974.67 2205.67 1977.08 2201.23 1978.82C2196.79 1980.53 2191.8 1981.38 2186.26 1981.38ZM2239.26 1979.67V1897.86H2251.41V1910.21H2252.26C2253.75 1906.17 2256.45 1902.88 2260.36 1900.36C2264.26 1897.84 2268.67 1896.58 2273.57 1896.58C2274.49 1896.58 2275.64 1896.6 2277.03 1896.63C2278.41 1896.67 2279.46 1896.72 2280.17 1896.79V1909.58C2279.75 1909.47 2278.77 1909.31 2277.24 1909.1C2275.75 1908.85 2274.17 1908.72 2272.5 1908.72C2268.52 1908.72 2264.97 1909.56 2261.85 1911.23C2258.76 1912.86 2256.31 1915.13 2254.5 1918.04C2252.72 1920.92 2251.83 1924.21 2251.83 1927.9V1979.67H2239.26ZM2338.97 1979.67V1870.58H2352.18V1919.16H2410.34V1870.58H2423.55V1979.67H2410.34V1930.88H2352.18V1979.67H2338.97ZM2499.86 1946.22V1897.86H2512.43V1979.67H2499.86V1965.83H2499.01C2497.09 1969.98 2494.11 1973.51 2490.06 1976.43C2486.01 1979.3 2480.9 1980.74 2474.72 1980.74C2469.6 1980.74 2465.06 1979.62 2461.08 1977.38C2457.1 1975.11 2453.98 1971.7 2451.71 1967.16C2449.43 1962.58 2448.3 1956.81 2448.3 1949.85V1897.86H2460.87V1948.99C2460.87 1954.96 2462.54 1959.72 2465.87 1963.27C2469.25 1966.82 2473.55 1968.6 2478.77 1968.6C2481.89 1968.6 2485.07 1967.8 2488.3 1966.2C2491.57 1964.6 2494.3 1962.15 2496.5 1958.85C2498.74 1955.54 2499.86 1951.34 2499.86 1946.22ZM2537.16 1979.67V1870.58H2549.73V1910.85H2550.8C2551.72 1909.43 2553 1907.62 2554.63 1905.42C2556.3 1903.18 2558.68 1901.19 2561.77 1899.45C2564.89 1897.68 2569.12 1896.79 2574.45 1896.79C2581.34 1896.79 2587.41 1898.51 2592.66 1901.96C2597.92 1905.4 2602.02 1910.29 2604.97 1916.61C2607.92 1922.93 2609.39 1930.38 2609.39 1938.98C2609.39 1947.64 2607.92 1955.15 2604.97 1961.51C2602.02 1967.83 2597.94 1972.73 2592.72 1976.21C2587.5 1979.66 2581.48 1981.38 2574.66 1981.38C2569.4 1981.38 2565.2 1980.51 2562.04 1978.77C2558.87 1976.99 2556.44 1974.99 2554.74 1972.75C2553.03 1970.48 2551.72 1968.6 2550.8 1967.1H2549.3V1979.67H2537.16ZM2549.52 1938.77C2549.52 1944.94 2550.42 1950.4 2552.23 1955.12C2554.05 1959.81 2556.69 1963.48 2560.17 1966.14C2563.65 1968.77 2567.91 1970.09 2572.95 1970.09C2578.21 1970.09 2582.6 1968.7 2586.11 1965.93C2589.66 1963.13 2592.33 1959.36 2594.1 1954.64C2595.91 1949.88 2596.82 1944.59 2596.82 1938.77C2596.82 1933.01 2595.93 1927.83 2594.16 1923.21C2592.42 1918.56 2589.77 1914.88 2586.22 1912.19C2582.7 1909.45 2578.28 1908.08 2572.95 1908.08C2567.84 1908.08 2563.54 1909.38 2560.06 1911.97C2556.58 1914.53 2553.96 1918.12 2552.18 1922.73C2550.41 1927.31 2549.52 1932.66 2549.52 1938.77ZM2722.37 1946.22V1897.86H2734.94V1979.67H2722.37V1965.83H2721.52C2719.6 1969.98 2716.62 1973.51 2712.57 1976.43C2708.52 1979.3 2703.41 1980.74 2697.23 1980.74C2692.11 1980.74 2687.57 1979.62 2683.59 1977.38C2679.61 1975.11 2676.49 1971.7 2674.22 1967.16C2671.94 1962.58 2670.81 1956.81 2670.81 1949.85V1897.86H2683.38V1948.99C2683.38 1954.96 2685.05 1959.72 2688.38 1963.27C2691.76 1966.82 2696.06 1968.6 2701.28 1968.6C2704.4 1968.6 2707.58 1967.8 2710.81 1966.2C2714.08 1964.6 2716.81 1962.15 2719.01 1958.85C2721.25 1955.54 2722.37 1951.34 2722.37 1946.22ZM2757.96 2010.36V1897.86H2770.11V1910.85H2771.6C2772.52 1909.43 2773.8 1907.62 2775.44 1905.42C2777.11 1903.18 2779.48 1901.19 2782.57 1899.45C2785.7 1897.68 2789.92 1896.79 2795.25 1896.79C2802.14 1896.79 2808.21 1898.51 2813.47 1901.96C2818.72 1905.4 2822.83 1910.29 2825.77 1916.61C2828.72 1922.93 2830.19 1930.38 2830.19 1938.98C2830.19 1947.64 2828.72 1955.15 2825.77 1961.51C2822.83 1967.83 2818.74 1972.73 2813.52 1976.21C2808.3 1979.66 2802.28 1981.38 2795.46 1981.38C2790.21 1981.38 2786 1980.51 2782.84 1978.77C2779.68 1976.99 2777.25 1974.99 2775.54 1972.75C2773.84 1970.48 2772.52 1968.6 2771.6 1967.1H2770.54V2010.36H2757.96ZM2770.32 1938.77C2770.32 1944.94 2771.23 1950.4 2773.04 1955.12C2774.85 1959.81 2777.5 1963.48 2780.98 1966.14C2784.46 1968.77 2788.72 1970.09 2793.76 1970.09C2799.02 1970.09 2803.4 1968.7 2806.92 1965.93C2810.47 1963.13 2813.13 1959.36 2814.91 1954.64C2816.72 1949.88 2817.62 1944.59 2817.62 1938.77C2817.62 1933.01 2816.74 1927.83 2814.96 1923.21C2813.22 1918.56 2810.57 1914.88 2807.02 1912.19C2803.51 1909.45 2799.09 1908.08 2793.76 1908.08C2788.65 1908.08 2784.35 1909.38 2780.87 1911.97C2777.39 1914.53 2774.76 1918.12 2772.99 1922.73C2771.21 1927.31 2770.32 1932.66 2770.32 1938.77ZM2880.27 1981.38C2873.45 1981.38 2867.43 1979.66 2862.21 1976.21C2856.99 1972.73 2852.9 1967.83 2849.96 1961.51C2847.01 1955.15 2845.54 1947.64 2845.54 1938.98C2845.54 1930.38 2847.01 1922.93 2849.96 1916.61C2852.9 1910.29 2857.01 1905.4 2862.26 1901.96C2867.52 1898.51 2873.59 1896.79 2880.48 1896.79C2885.81 1896.79 2890.01 1897.68 2893.1 1899.45C2896.23 1901.19 2898.61 1903.18 2900.24 1905.42C2901.91 1907.62 2903.21 1909.43 2904.13 1910.85H2905.19V1870.58H2917.77V1979.67H2905.62V1967.1H2904.13C2903.21 1968.6 2901.89 1970.48 2900.19 1972.75C2898.48 1974.99 2896.05 1976.99 2892.89 1978.77C2889.73 1980.51 2885.52 1981.38 2880.27 1981.38ZM2881.97 1970.09C2887.01 1970.09 2891.27 1968.77 2894.75 1966.14C2898.23 1963.48 2900.88 1959.81 2902.69 1955.12C2904.5 1950.4 2905.41 1944.94 2905.41 1938.77C2905.41 1932.66 2904.52 1927.31 2902.74 1922.73C2900.97 1918.12 2898.34 1914.53 2894.86 1911.97C2891.38 1909.38 2887.08 1908.08 2881.97 1908.08C2876.64 1908.08 2872.2 1909.45 2868.65 1912.19C2865.14 1914.88 2862.49 1918.56 2860.72 1923.21C2858.98 1927.83 2858.11 1933.01 2858.11 1938.77C2858.11 1944.59 2858.99 1949.88 2860.77 1954.64C2862.58 1959.36 2865.24 1963.13 2868.76 1965.93C2872.31 1968.7 2876.71 1970.09 2881.97 1970.09ZM2966.61 1981.59C2961.43 1981.59 2956.72 1980.62 2952.5 1978.66C2948.27 1976.67 2944.91 1973.82 2942.43 1970.09C2939.94 1966.32 2938.7 1961.78 2938.7 1956.45C2938.7 1951.76 2939.62 1947.96 2941.47 1945.05C2943.32 1942.1 2945.78 1939.8 2948.87 1938.13C2951.96 1936.46 2955.37 1935.21 2959.1 1934.4C2962.87 1933.55 2966.65 1932.87 2970.45 1932.37C2975.42 1931.73 2979.45 1931.25 2982.54 1930.94C2985.66 1930.58 2987.94 1929.99 2989.36 1929.18C2990.81 1928.36 2991.54 1926.94 2991.54 1924.92V1924.49C2991.54 1919.23 2990.1 1915.15 2987.23 1912.24C2984.39 1909.33 2980.07 1907.87 2974.28 1907.87C2968.28 1907.87 2963.58 1909.18 2960.17 1911.81C2956.76 1914.44 2954.36 1917.25 2952.98 1920.23L2941.04 1915.97C2943.17 1911 2946.02 1907.12 2949.57 1904.35C2953.15 1901.55 2957.06 1899.6 2961.28 1898.5C2965.55 1897.36 2969.74 1896.79 2973.86 1896.79C2976.48 1896.79 2979.5 1897.11 2982.91 1897.75C2986.36 1898.35 2989.68 1899.61 2992.87 1901.53C2996.1 1903.45 2998.78 1906.34 3000.92 1910.21C3003.05 1914.09 3004.11 1919.27 3004.11 1925.77V1979.67H2991.54V1968.6H2990.9C2990.05 1970.37 2988.63 1972.27 2986.64 1974.29C2984.65 1976.32 2982.01 1978.04 2978.7 1979.46C2975.4 1980.88 2971.37 1981.59 2966.61 1981.59ZM2968.53 1970.3C2973.5 1970.3 2977.69 1969.32 2981.1 1967.37C2984.54 1965.42 2987.14 1962.9 2988.88 1959.81C2990.65 1956.72 2991.54 1953.47 2991.54 1950.06V1938.55C2991.01 1939.19 2989.84 1939.78 2988.03 1940.31C2986.25 1940.81 2984.19 1941.25 2981.85 1941.64C2979.54 1942 2977.28 1942.32 2975.08 1942.6C2972.91 1942.85 2971.16 1943.06 2969.81 1943.24C2966.54 1943.67 2963.49 1944.36 2960.65 1945.32C2957.84 1946.24 2955.57 1947.64 2953.83 1949.53C2952.12 1951.37 2951.27 1953.89 2951.27 1957.09C2951.27 1961.46 2952.89 1964.76 2956.12 1967C2959.39 1969.2 2963.52 1970.3 2968.53 1970.3ZM3062.64 1897.86V1908.51H3020.24V1897.86H3062.64ZM3032.6 1878.25H3045.17V1956.24C3045.17 1959.79 3045.68 1962.45 3046.71 1964.23C3047.78 1965.97 3049.13 1967.14 3050.76 1967.74C3052.43 1968.31 3054.19 1968.6 3056.03 1968.6C3057.42 1968.6 3058.56 1968.52 3059.44 1968.38C3060.33 1968.2 3061.04 1968.06 3061.57 1967.96L3064.13 1979.25C3063.28 1979.57 3062.09 1979.89 3060.56 1980.21C3059.03 1980.56 3057.1 1980.74 3054.76 1980.74C3051.2 1980.74 3047.72 1979.98 3044.31 1978.45C3040.94 1976.92 3038.14 1974.6 3035.9 1971.47C3033.7 1968.35 3032.6 1964.4 3032.6 1959.65V1878.25ZM3114.97 1981.38C3107.09 1981.38 3100.29 1979.64 3094.57 1976.16C3088.89 1972.64 3084.5 1967.74 3081.42 1961.46C3078.36 1955.14 3076.83 1947.79 3076.83 1939.4C3076.83 1931.02 3078.36 1923.64 3081.42 1917.25C3084.5 1910.82 3088.8 1905.81 3094.31 1902.22C3099.85 1898.6 3106.31 1896.79 3113.7 1896.79C3117.96 1896.79 3122.16 1897.5 3126.32 1898.92C3130.47 1900.34 3134.26 1902.65 3137.67 1905.85C3141.07 1909.01 3143.79 1913.2 3145.82 1918.42C3147.84 1923.64 3148.85 1930.07 3148.85 1937.7V1943.03H3085.78V1932.16H3136.07C3136.07 1927.54 3135.14 1923.42 3133.3 1919.8C3131.49 1916.18 3128.89 1913.32 3125.52 1911.23C3122.18 1909.13 3118.24 1908.08 3113.7 1908.08C3108.69 1908.08 3104.36 1909.33 3100.7 1911.81C3097.08 1914.26 3094.29 1917.46 3092.34 1921.4C3090.38 1925.34 3089.41 1929.57 3089.41 1934.08V1941.32C3089.41 1947.5 3090.47 1952.74 3092.6 1957.04C3094.77 1961.3 3097.77 1964.55 3101.6 1966.78C3105.44 1968.99 3109.9 1970.09 3114.97 1970.09C3118.28 1970.09 3121.26 1969.62 3123.92 1968.7C3126.62 1967.74 3128.95 1966.32 3130.9 1964.44C3132.85 1962.52 3134.36 1960.14 3135.43 1957.3L3147.57 1960.71C3146.29 1964.83 3144.15 1968.45 3141.13 1971.58C3138.11 1974.67 3134.38 1977.08 3129.94 1978.82C3125.5 1980.53 3120.51 1981.38 3114.97 1981.38ZM3225.93 1916.18L3214.64 1919.38C3213.93 1917.49 3212.88 1915.67 3211.49 1913.89C3210.14 1912.08 3208.3 1910.59 3205.95 1909.42C3203.61 1908.24 3200.61 1907.66 3196.95 1907.66C3191.94 1907.66 3187.77 1908.81 3184.43 1911.12C3181.13 1913.39 3179.48 1916.29 3179.48 1919.8C3179.48 1922.93 3180.62 1925.4 3182.89 1927.21C3185.16 1929.02 3188.71 1930.53 3193.54 1931.73L3205.69 1934.72C3213 1936.49 3218.45 1939.21 3222.04 1942.87C3225.63 1946.49 3227.42 1951.16 3227.42 1956.88C3227.42 1961.56 3226.07 1965.75 3223.37 1969.45C3220.71 1973.14 3216.98 1976.05 3212.19 1978.18C3207.39 1980.31 3201.82 1981.38 3195.46 1981.38C3187.12 1981.38 3180.21 1979.57 3174.74 1975.95C3169.27 1972.32 3165.81 1967.03 3164.35 1960.07L3176.28 1957.09C3177.42 1961.49 3179.57 1964.8 3182.73 1967C3185.93 1969.2 3190.1 1970.3 3195.25 1970.3C3201.11 1970.3 3205.76 1969.06 3209.2 1966.57C3212.68 1964.05 3214.42 1961.03 3214.42 1957.52C3214.42 1954.67 3213.43 1952.3 3211.44 1950.38C3209.45 1948.42 3206.4 1946.97 3202.28 1946.01L3188.64 1942.81C3181.15 1941.04 3175.64 1938.29 3172.13 1934.56C3168.65 1930.79 3166.91 1926.09 3166.91 1920.44C3166.91 1915.83 3168.21 1911.74 3170.8 1908.19C3173.43 1904.64 3176.99 1901.85 3181.5 1899.83C3186.05 1897.8 3191.2 1896.79 3196.95 1896.79C3205.05 1896.79 3211.4 1898.57 3216.02 1902.12C3220.67 1905.67 3223.98 1910.36 3225.93 1916.18ZM3288.53 1979.67V1897.86H3301.1V1979.67H3288.53ZM3294.92 1884.22C3292.47 1884.22 3290.36 1883.39 3288.58 1881.72C3286.84 1880.05 3285.97 1878.04 3285.97 1875.7C3285.97 1873.35 3286.84 1871.35 3288.58 1869.68C3290.36 1868.01 3292.47 1867.17 3294.92 1867.17C3297.37 1867.17 3299.47 1868.01 3301.21 1869.68C3302.98 1871.35 3303.87 1873.35 3303.87 1875.7C3303.87 1878.04 3302.98 1880.05 3301.21 1881.72C3299.47 1883.39 3297.37 1884.22 3294.92 1884.22ZM3336.7 1930.46V1979.67H3324.13V1897.86H3336.27V1910.64H3337.34C3339.25 1906.49 3342.17 1903.15 3346.07 1900.63C3349.98 1898.07 3355.02 1896.79 3361.2 1896.79C3366.74 1896.79 3371.59 1897.93 3375.74 1900.2C3379.9 1902.44 3383.13 1905.85 3385.44 1910.43C3387.75 1914.97 3388.9 1920.73 3388.9 1927.69V1979.67H3376.33V1928.54C3376.33 1922.11 3374.66 1917.1 3371.32 1913.52C3367.98 1909.89 3363.4 1908.08 3357.58 1908.08C3353.57 1908.08 3349.98 1908.95 3346.82 1910.69C3343.69 1912.43 3341.23 1914.97 3339.41 1918.31C3337.6 1921.65 3336.7 1925.7 3336.7 1930.46ZM3449.8 1882.3V1870.58H3531.62V1882.3H3497.31V1979.67H3484.1V1882.3H3449.8ZM3572.74 1981.38C3564.85 1981.38 3558.05 1979.64 3552.34 1976.16C3546.65 1972.64 3542.27 1967.74 3539.18 1961.46C3536.13 1955.14 3534.6 1947.79 3534.6 1939.4C3534.6 1931.02 3536.13 1923.64 3539.18 1917.25C3542.27 1910.82 3546.57 1905.81 3552.07 1902.22C3557.61 1898.6 3564.07 1896.79 3571.46 1896.79C3575.72 1896.79 3579.93 1897.5 3584.08 1898.92C3588.24 1900.34 3592.02 1902.65 3595.43 1905.85C3598.84 1909.01 3601.55 1913.2 3603.58 1918.42C3605.6 1923.64 3606.62 1930.07 3606.62 1937.7V1943.03H3543.55V1932.16H3593.83C3593.83 1927.54 3592.91 1923.42 3591.06 1919.8C3589.25 1916.18 3586.66 1913.32 3583.28 1911.23C3579.95 1909.13 3576 1908.08 3571.46 1908.08C3566.45 1908.08 3562.12 1909.33 3558.46 1911.81C3554.84 1914.26 3552.05 1917.46 3550.1 1921.4C3548.15 1925.34 3547.17 1929.57 3547.17 1934.08V1941.32C3547.17 1947.5 3548.23 1952.74 3550.37 1957.04C3552.53 1961.3 3555.53 1964.55 3559.37 1966.78C3563.2 1968.99 3567.66 1970.09 3572.74 1970.09C3576.04 1970.09 3579.02 1969.62 3581.69 1968.7C3584.39 1967.74 3586.71 1966.32 3588.66 1964.44C3590.62 1962.52 3592.13 1960.14 3593.19 1957.3L3605.34 1960.71C3604.06 1964.83 3601.91 1968.45 3598.89 1971.58C3595.87 1974.67 3592.14 1977.08 3587.71 1978.82C3583.27 1980.53 3578.28 1981.38 3572.74 1981.38ZM3638.31 1870.58V1979.67H3625.74V1870.58H3638.31ZM3695.64 1981.38C3687.75 1981.38 3680.95 1979.64 3675.24 1976.16C3669.55 1972.64 3665.17 1967.74 3662.08 1961.46C3659.03 1955.14 3657.5 1947.79 3657.5 1939.4C3657.5 1931.02 3659.03 1923.64 3662.08 1917.25C3665.17 1910.82 3669.47 1905.81 3674.97 1902.22C3680.51 1898.6 3686.97 1896.79 3694.36 1896.79C3698.62 1896.79 3702.83 1897.5 3706.98 1898.92C3711.14 1900.34 3714.92 1902.65 3718.33 1905.85C3721.74 1909.01 3724.46 1913.2 3726.48 1918.42C3728.5 1923.64 3729.52 1930.07 3729.52 1937.7V1943.03H3666.45V1932.16H3716.73C3716.73 1927.54 3715.81 1923.42 3713.96 1919.8C3712.15 1916.18 3709.56 1913.32 3706.18 1911.23C3702.85 1909.13 3698.9 1908.08 3694.36 1908.08C3689.35 1908.08 3685.02 1909.33 3681.36 1911.81C3677.74 1914.26 3674.95 1917.46 3673 1921.4C3671.05 1925.34 3670.07 1929.57 3670.07 1934.08V1941.32C3670.07 1947.5 3671.13 1952.74 3673.27 1957.04C3675.43 1961.3 3678.43 1964.55 3682.27 1966.78C3686.1 1968.99 3690.56 1970.09 3695.64 1970.09C3698.94 1970.09 3701.92 1969.62 3704.59 1968.7C3707.29 1967.74 3709.61 1966.32 3711.56 1964.44C3713.52 1962.52 3715.03 1960.14 3716.09 1957.3L3728.24 1960.71C3726.96 1964.83 3724.81 1968.45 3721.79 1971.58C3718.77 1974.67 3715.04 1977.08 3710.61 1978.82C3706.17 1980.53 3701.18 1981.38 3695.64 1981.38ZM3781.66 2012.06C3775.59 2012.06 3770.37 2011.28 3766 2009.72C3761.64 2008.19 3758 2006.17 3755.08 2003.64C3752.21 2001.16 3749.92 1998.5 3748.21 1995.65L3758.23 1988.62C3759.36 1990.11 3760.8 1991.82 3762.54 1993.74C3764.28 1995.69 3766.66 1997.38 3769.68 1998.8C3772.73 2000.25 3776.73 2000.98 3781.66 2000.98C3788.27 2000.98 3793.72 1999.38 3798.02 1996.19C3802.31 1992.99 3804.46 1987.98 3804.46 1981.17V1964.55H3803.4C3802.47 1966.04 3801.16 1967.88 3799.46 1970.09C3797.79 1972.25 3795.37 1974.19 3792.21 1975.89C3789.09 1977.56 3784.86 1978.4 3779.53 1978.4C3772.93 1978.4 3767 1976.83 3761.74 1973.71C3756.52 1970.58 3752.38 1966.04 3749.33 1960.07C3746.31 1954.11 3744.8 1946.86 3744.8 1938.34C3744.8 1929.96 3746.28 1922.66 3749.22 1916.45C3752.17 1910.2 3756.27 1905.37 3761.53 1901.96C3766.78 1898.51 3772.86 1896.79 3779.75 1896.79C3785.07 1896.79 3789.3 1897.68 3792.42 1899.45C3795.58 1901.19 3798 1903.18 3799.67 1905.42C3801.37 1907.62 3802.69 1909.43 3803.61 1910.85H3804.89V1897.86H3817.03V1982.02C3817.03 1989.05 3815.44 1994.77 3812.24 1999.17C3809.08 2003.61 3804.82 2006.86 3799.46 2008.92C3794.13 2011.01 3788.2 2012.06 3781.66 2012.06ZM3781.24 1967.1C3786.28 1967.1 3790.54 1965.95 3794.02 1963.64C3797.5 1961.33 3800.15 1958.01 3801.96 1953.68C3803.77 1949.35 3804.68 1944.16 3804.68 1938.13C3804.68 1932.23 3803.79 1927.03 3802.01 1922.52C3800.24 1918.01 3797.61 1914.48 3794.13 1911.92C3790.65 1909.36 3786.35 1908.08 3781.24 1908.08C3775.91 1908.08 3771.47 1909.43 3767.92 1912.13C3764.41 1914.83 3761.76 1918.45 3759.98 1923C3758.24 1927.54 3757.37 1932.59 3757.37 1938.13C3757.37 1943.81 3758.26 1948.83 3760.04 1953.2C3761.85 1957.53 3764.51 1960.94 3768.03 1963.43C3771.58 1965.88 3775.98 1967.1 3781.24 1967.1ZM3840.04 1979.67V1897.86H3852.19V1910.21H3853.04C3854.53 1906.17 3857.23 1902.88 3861.14 1900.36C3865.04 1897.84 3869.45 1896.58 3874.35 1896.58C3875.27 1896.58 3876.43 1896.6 3877.81 1896.63C3879.2 1896.67 3880.24 1896.72 3880.95 1896.79V1909.58C3880.53 1909.47 3879.55 1909.31 3878.02 1909.1C3876.53 1908.85 3874.95 1908.72 3873.28 1908.72C3869.31 1908.72 3865.75 1909.56 3862.63 1911.23C3859.54 1912.86 3857.09 1915.13 3855.28 1918.04C3853.5 1920.92 3852.62 1924.21 3852.62 1927.9V1979.67H3840.04ZM3919.93 1981.59C3914.75 1981.59 3910.04 1980.62 3905.82 1978.66C3901.59 1976.67 3898.23 1973.82 3895.75 1970.09C3893.26 1966.32 3892.02 1961.78 3892.02 1956.45C3892.02 1951.76 3892.94 1947.96 3894.79 1945.05C3896.64 1942.1 3899.1 1939.8 3902.19 1938.13C3905.28 1936.46 3908.69 1935.21 3912.42 1934.4C3916.19 1933.55 3919.97 1932.87 3923.77 1932.37C3928.74 1931.73 3932.77 1931.25 3935.86 1930.94C3938.98 1930.58 3941.26 1929.99 3942.68 1929.18C3944.13 1928.36 3944.86 1926.94 3944.86 1924.92V1924.49C3944.86 1919.23 3943.42 1915.15 3940.55 1912.24C3937.71 1909.33 3933.39 1907.87 3927.6 1907.87C3921.6 1907.87 3916.9 1909.18 3913.49 1911.81C3910.08 1914.44 3907.68 1917.25 3906.3 1920.23L3894.36 1915.97C3896.49 1911 3899.34 1907.12 3902.89 1904.35C3906.47 1901.55 3910.38 1899.6 3914.61 1898.5C3918.87 1897.36 3923.06 1896.79 3927.18 1896.79C3929.8 1896.79 3932.82 1897.11 3936.23 1897.75C3939.68 1898.35 3943 1899.61 3946.19 1901.53C3949.42 1903.45 3952.11 1906.34 3954.24 1910.21C3956.37 1914.09 3957.43 1919.27 3957.43 1925.77V1979.67H3944.86V1968.6H3944.22C3943.37 1970.37 3941.95 1972.27 3939.96 1974.29C3937.97 1976.32 3935.33 1978.04 3932.02 1979.46C3928.72 1980.88 3924.69 1981.59 3919.93 1981.59ZM3921.85 1970.3C3926.82 1970.3 3931.01 1969.32 3934.42 1967.37C3937.87 1965.42 3940.46 1962.9 3942.2 1959.81C3943.97 1956.72 3944.86 1953.47 3944.86 1950.06V1938.55C3944.33 1939.19 3943.16 1939.78 3941.35 1940.31C3939.57 1940.81 3937.51 1941.25 3935.17 1941.64C3932.86 1942 3930.6 1942.32 3928.4 1942.6C3926.24 1942.85 3924.48 1943.06 3923.13 1943.24C3919.86 1943.67 3916.81 1944.36 3913.97 1945.32C3911.16 1946.24 3908.89 1947.64 3907.15 1949.53C3905.44 1951.37 3904.59 1953.89 3904.59 1957.09C3904.59 1961.46 3906.21 1964.76 3909.44 1967C3912.71 1969.2 3916.84 1970.3 3921.85 1970.3ZM3980.38 1979.67V1897.86H3992.52V1910.64H3993.59C3995.29 1906.27 3998.04 1902.88 4001.84 1900.47C4005.64 1898.02 4010.21 1896.79 4015.53 1896.79C4020.93 1896.79 4025.42 1898.02 4029.01 1900.47C4032.63 1902.88 4035.45 1906.27 4037.48 1910.64H4038.33C4040.43 1906.41 4043.57 1903.06 4047.76 1900.57C4051.95 1898.05 4056.97 1896.79 4062.83 1896.79C4070.15 1896.79 4076.13 1899.08 4080.79 1903.66C4085.44 1908.21 4087.76 1915.29 4087.76 1924.92V1979.67H4075.19V1924.92C4075.19 1918.88 4073.54 1914.56 4070.24 1911.97C4066.94 1909.38 4063.05 1908.08 4058.57 1908.08C4052.82 1908.08 4048.36 1909.82 4045.2 1913.3C4042.04 1916.75 4040.46 1921.12 4040.46 1926.41V1979.67H4027.68V1923.64C4027.68 1918.99 4026.17 1915.24 4023.15 1912.4C4020.13 1909.52 4016.24 1908.08 4011.48 1908.08C4008.22 1908.08 4005.16 1908.95 4002.32 1910.69C3999.52 1912.43 3997.24 1914.85 3995.5 1917.94C3993.8 1920.99 3992.95 1924.53 3992.95 1928.54V1979.67H3980.38Z" fill="#E5DFD9"/>
<path d="M2380.88 385.725C2370.44 388.485 2361.68 394.964 2363.12 398.803C2364.2 401.443 2366.72 401.083 2373.32 396.884C2377.04 394.604 2382.32 392.684 2387.12 391.844C2395.4 390.524 2397.44 388.725 2394.44 385.605C2392.16 383.445 2389.4 383.445 2380.88 385.725Z" fill="#E5DFD9"/>
<path d="M2413.28 397.484C2412.08 398.804 2412.56 400.603 2415.56 405.883C2417.6 409.482 2419.76 415.122 2420.12 418.241C2420.84 423.401 2421.32 424 2423.96 424C2426.84 424 2426.96 423.641 2426.84 417.881C2426.6 411.162 2423.24 402.283 2419.28 398.324C2416.28 395.324 2415.2 395.204 2413.28 397.484Z" fill="#E5DFD9"/>
<path d="M2383.52 410.202C2378.72 413.082 2377.16 415.961 2377.16 422.201C2377.16 426.16 2377.88 427.96 2380.64 430.72C2382.56 432.639 2385.8 434.559 2387.72 434.919C2390.96 435.519 2391.44 436.479 2396.12 451.477C2398.88 460.236 2401.4 468.155 2401.76 469.235C2402.24 470.555 2400.92 471.634 2396.72 473.194C2388.44 476.314 2370.32 485.433 2363.96 489.752C2347.28 501.031 2336.36 512.309 2329.88 525.028C2324 536.906 2323.16 542.666 2323.16 574.582C2323.16 629.295 2327.84 659.891 2339.12 678.849C2343.08 685.328 2352.8 695.047 2357.72 697.326C2360.48 698.646 2361.32 700.566 2359.04 700.566C2356.28 700.566 2346.8 708.365 2342.84 713.764C2339.48 718.444 2337.44 720.003 2332.4 721.683C2321.96 725.043 2304.92 733.682 2293.28 741.481C2266.88 759.119 2244.8 788.275 2234.36 819.351C2228.24 837.589 2223.8 868.065 2225.24 883.183L2225.96 891.342L2221.52 894.222C2215.28 898.061 2212.16 901.781 2209.28 908.14C2204.12 919.898 2204.84 936.456 2211.2 949.895C2214.68 957.334 2218.28 960.093 2223.92 959.613C2226.92 959.373 2228.96 960.093 2231.84 962.493C2236.16 966.093 2238.8 966.573 2242.16 964.053C2244.08 962.733 2244.92 962.733 2248.4 964.773C2253.8 968.012 2258.36 966.933 2258.36 962.493C2258.36 960.813 2256.44 954.814 2253.92 949.175C2247.92 935.017 2248.16 924.938 2254.76 924.938C2256.8 924.938 2258.36 927.457 2261.84 936.456C2264.36 942.936 2272.52 944.975 2275.76 940.056C2278.28 936.336 2277.32 928.177 2272.64 913.419C2268.2 899.381 2263.28 893.382 2254.04 890.622L2247.56 888.822V874.664C2247.56 827.03 2268.56 784.555 2304.2 760.438C2312 755.159 2331.08 744.96 2333.24 744.96C2334.2 744.96 2334.56 753.959 2334.56 772.917C2334.68 796.794 2335.04 802.673 2337.32 814.192C2344.88 852.107 2360.84 878.744 2382.2 889.302C2389.76 893.022 2391.32 894.342 2393.36 898.781C2396.84 906.34 2408.84 917.979 2417.72 922.418L2425.16 926.138V993.089C2425.04 1039.04 2424.68 1059.32 2423.84 1057.76C2422.16 1055 2414.24 1055 2411.72 1057.76C2410.64 1058.96 2409.56 1061.96 2409.08 1064.36C2408.6 1066.88 2407.64 1069.28 2406.92 1069.64C2406.08 1070.12 2400.44 1071.32 2394.2 1072.16C2375.36 1074.68 2365.04 1080.8 2359.64 1092.32C2356.28 1099.52 2355.8 1110.19 2358.68 1114.27L2360.48 1116.91H2408.48C2454.32 1116.91 2456.48 1116.79 2458.64 1114.63C2461.88 1111.39 2462.72 1105.64 2462.12 1091.36C2461.52 1078.04 2459.84 1073.36 2454.44 1069.04C2452.64 1067.6 2450.24 1066.52 2449.04 1066.52C2446.88 1066.52 2446.76 1064.12 2446.76 998.129V929.737L2449.52 930.337C2455.04 931.537 2482.39 934.657 2502.91 936.336C2567.71 941.856 2664.43 938.616 2725.51 929.017L2729.95 928.297V997.409C2729.95 1064 2729.83 1066.52 2727.67 1066.52C2724.67 1066.52 2719.51 1070.72 2717.23 1075.16C2715.07 1079.48 2713.63 1098.2 2714.83 1106.6C2716.51 1117.39 2713.75 1116.91 2768.22 1116.91H2816.22L2818.02 1114.27C2819.1 1112.71 2819.94 1109.11 2819.94 1105.64C2819.94 1087.16 2807.22 1075.4 2783.7 1072.4C2769.78 1070.6 2768.7 1070 2767.74 1064.12C2767.26 1061.48 2766.18 1058.48 2765.1 1057.52C2762.58 1055 2754.42 1055.12 2752.86 1057.76C2752.02 1059.32 2751.66 1038.32 2751.54 990.69V921.578L2757.66 917.019C2764.86 911.739 2771.82 902.861 2776.14 893.382C2777.94 889.662 2779.74 886.543 2780.34 886.543C2782.74 886.543 2795.1 873.704 2800.26 866.025C2816.22 841.908 2824.14 807.232 2823.3 765.118L2822.94 743.76L2832.54 740.641C2865.3 729.842 2894.1 708.485 2912.34 681.248C2921.1 668.17 2924.46 661.691 2929.74 647.892C2937.06 629.055 2942.22 602.658 2942.34 584.54C2942.34 577.221 2942.34 577.101 2946.06 576.381C2948.1 575.901 2952.42 573.022 2955.54 569.902C2962.86 562.823 2966.34 553.824 2966.34 542.066C2966.34 528.987 2962.74 522.988 2954.94 522.988C2952.9 522.988 2950.74 521.668 2948.7 519.388C2945.58 515.669 2942.58 514.949 2938.86 516.989C2936.82 517.949 2936.58 517.229 2935.86 508.35C2934.9 496.951 2932.5 490.832 2928.42 489.872C2924.58 488.912 2922.54 489.872 2919.9 493.832C2917.98 496.711 2917.74 499.951 2917.74 519.988C2917.62 532.467 2917.26 543.985 2916.66 545.425C2916.06 547.465 2914.86 548.185 2912.34 548.185C2907.9 548.185 2905.5 544.825 2903.82 535.946C2902.26 528.267 2900.7 526.228 2895.9 526.228C2890.74 526.228 2888.34 530.427 2888.34 539.186C2888.34 553.464 2899.26 568.582 2914.14 574.702L2920.86 577.461L2920.02 587.66C2915.1 655.811 2880.9 702.966 2823.9 720.363L2818.86 721.923L2815.26 715.684C2811.78 709.565 2806.26 704.405 2800.26 701.646C2796.18 699.726 2796.3 699.126 2801.46 696.366C2807.7 693.007 2816.94 682.328 2821.02 673.809C2830.26 654.372 2833.14 634.454 2833.98 584.06C2834.7 540.266 2834.46 538.346 2826.3 522.628C2804.34 480.753 2725.03 451.597 2611.15 443.678C2556.43 439.838 2478.07 447.997 2428.28 462.636C2420.36 464.915 2412.68 467.075 2411.24 467.435C2409.08 467.915 2408.24 466.235 2403.44 450.757L2398.04 433.599L2400.8 429.52C2405.6 422.561 2403.56 413.322 2396.36 409.602C2391.68 407.202 2388.2 407.322 2383.52 410.202ZM2649.55 510.39C2740.26 517.829 2793.66 533.787 2807.58 557.424C2811.54 564.263 2812.38 574.462 2810.46 595.939C2806.62 638.654 2794.74 649.812 2749.14 653.652C2701.39 657.611 2492.71 658.571 2434.16 654.972C2384.6 652.092 2371.04 647.292 2361.8 630.015C2356.04 619.216 2354.24 610.097 2353.52 586.94C2352.92 569.302 2353.16 565.343 2354.84 560.903C2358.2 552.024 2369 542.786 2383.64 536.186C2414 522.628 2467.99 513.029 2539.15 508.59C2562.67 507.15 2622.31 508.11 2649.55 510.39Z" fill="#E5DFD9"/>
<path d="M2443.16 563.663C2438.6 568.103 2437.76 572.062 2439.92 577.341C2443.64 585.98 2454.44 587.66 2460.44 580.461C2470.39 568.703 2453.96 552.865 2443.16 563.663Z" fill="#E5DFD9"/>
<path d="M2706.07 561.863C2699.59 565.463 2698.03 574.582 2703.07 580.461C2708.83 587.42 2719.27 586.1 2723.47 578.061C2728.99 567.383 2716.63 555.984 2706.07 561.863Z" fill="#E5DFD9"/>
<path d="M2601.07 595.219C2599.99 596.659 2599.15 599.058 2599.15 600.378C2599.03 604.938 2594.59 612.737 2590.87 614.656C2580.31 620.176 2570.47 613.937 2567.47 599.538C2566.99 597.259 2565.67 595.939 2563.63 595.459C2556.91 593.779 2554.75 602.298 2559.55 611.657C2568.91 629.775 2592.79 633.014 2603.95 617.536C2607.31 612.977 2608.63 609.377 2610.55 600.258C2611.87 593.539 2604.79 589.82 2601.07 595.219Z" fill="#E5DFD9"/>
<path d="M2354.36 416.801C2351.96 419.681 2353.64 431.559 2357.24 438.639C2360.24 444.758 2362.04 446.318 2364.92 445.238C2367.08 444.518 2366.72 441.398 2363.36 434.919C2361.44 431.079 2360.36 427 2360.36 423.28C2360.36 418.841 2359.88 417.161 2358.08 416.321C2356.4 415.361 2355.44 415.481 2354.36 416.801Z" fill="#E5DFD9"/>
<path d="M3196.13 1313.21C3174.65 1315.37 3159.05 1322.21 3146.33 1335.17C3136.25 1345.37 3131.45 1353.76 3126.89 1369.48L3124.13 1379.08V1491.87C3124.13 1618.69 3123.65 1611.61 3133.25 1631.53C3142.13 1649.77 3158.45 1662.73 3179.93 1668.48C3190.85 1671.48 3221.81 1671.48 3232.73 1668.48C3259.61 1661.29 3277.12 1643.89 3285.76 1616.05L3288.52 1607.05L3288.88 1496.43C3289.12 1391.56 3289.12 1385.2 3286.96 1374.64C3280.36 1342.85 3260.21 1321.49 3230.81 1315.49C3221.69 1313.69 3203.69 1312.49 3196.13 1313.21ZM3216.53 1364.2C3222.41 1365.88 3230.33 1373.68 3232.73 1380.28C3234.17 1384.36 3234.53 1401.52 3234.89 1486.47C3235.13 1554.38 3234.77 1590.61 3233.93 1596.25C3231.29 1613.17 3222.65 1621.09 3206.45 1621.09C3192.41 1621.09 3185.21 1616.29 3180.29 1603.81C3178.37 1599.13 3178.13 1589.53 3177.77 1499.79C3177.53 1437.75 3177.89 1397.08 3178.61 1390.96C3180.41 1375.96 3185.33 1368.16 3195.17 1364.68C3200.69 1362.64 3210.05 1362.4 3216.53 1364.2Z" fill="#E5DFD9"/>
<path d="M1717.18 1492.59V1666.57L1769.14 1666.21C1818.7 1665.73 1821.34 1665.61 1829.98 1662.97C1854.7 1655.53 1870.3 1640.17 1877.74 1615.93C1882.54 1600.21 1882.9 1589.17 1882.54 1484.07C1882.06 1385.56 1881.94 1383.76 1879.42 1373.92C1876.9 1364.56 1871.98 1352.92 1867.78 1346.93C1862.62 1339.37 1852.78 1331.21 1843.78 1326.89C1827.82 1319.09 1822.42 1318.49 1766.38 1318.49H1717.18V1492.59ZM1814.02 1371.04C1820.02 1374.16 1824.58 1380.52 1826.26 1388.08C1827.1 1391.56 1827.58 1429.35 1827.58 1492.59C1827.58 1600.69 1827.7 1599.49 1820.74 1607.77C1814.86 1614.73 1809.94 1616.05 1790.14 1616.05H1772.38V1491.75V1367.44L1790.74 1367.92C1806.82 1368.28 1809.58 1368.64 1814.02 1371.04Z" fill="#E5DFD9"/>
<path d="M1918.78 1492.47V1666.45H1993.77H2068.77V1641.25V1616.05H2021.37H1973.97V1562.66V1509.26H2011.77H2049.57V1484.67V1460.07H2011.77H1973.97V1413.88V1367.68H2021.37H2068.77V1343.09V1318.49H1993.77H1918.78V1492.47Z" fill="#E5DFD9"/>
<path d="M2099.97 1492.35V1666.45H2127.57H2155.17V1595.77V1525.22L2177.13 1524.5C2193.45 1524.02 2201.24 1523.3 2208.08 1521.5C2232.68 1515.02 2248.88 1500.15 2256.44 1477.11C2261.48 1461.75 2262.2 1453.11 2261.6 1415.2C2261.12 1383.64 2260.88 1379.44 2258.48 1371.28C2250.8 1345.61 2236.76 1330.25 2213.6 1322.45L2203.76 1319.09L2151.93 1318.73L2099.97 1318.37V1492.35ZM2190.33 1369C2196.68 1370.68 2202.56 1376.44 2204.96 1383.04C2207.6 1390.36 2208.92 1432.83 2206.88 1448.55C2204.24 1470.03 2198.6 1474.23 2171.73 1474.35L2155.17 1474.47V1421.08V1367.68H2170.53C2178.93 1367.68 2187.81 1368.28 2190.33 1369Z" fill="#E5DFD9"/>
<path d="M2291.96 1492.47V1666.45H2364.56H2437.16L2436.92 1641.49L2436.56 1616.65L2391.92 1616.29L2347.16 1616.05V1467.27V1318.49H2319.56H2291.96V1492.47Z" fill="#E5DFD9"/>
<path d="M2463.55 1492.47V1666.45H2490.55H2517.55V1492.47V1318.49H2490.55H2463.55V1492.47Z" fill="#E5DFD9"/>
<path d="M2558.35 1492.47V1666.45H2585.95H2613.55L2613.79 1590.49L2614.15 1514.66L2649.31 1514.3L2684.35 1514.06V1489.47V1464.87H2648.95H2613.55V1416.28V1367.68H2658.55H2703.55V1343.09V1318.49H2630.95H2558.35V1492.47Z" fill="#E5DFD9"/>
<path d="M2714.83 1320.29C2715.19 1321.37 2730.07 1366.24 2747.94 1420.12L2780.34 1518.14V1592.29V1666.45H2807.94H2835.54V1591.69V1517.06L2868.42 1417.72L2901.18 1318.49H2874.54H2847.9L2843.7 1332.53C2841.42 1340.33 2833.14 1369 2825.22 1396.12C2817.42 1423.36 2810.7 1445.67 2810.34 1445.67C2809.98 1445.67 2801.34 1417 2791.14 1382.08L2772.66 1318.49H2743.38C2717.59 1318.49 2714.23 1318.73 2714.83 1320.29Z" fill="#E5DFD9"/>
<path d="M2926.74 1492.47V1666.57L2979.3 1666.21C3028.73 1665.73 3032.21 1665.61 3041.09 1663.09C3069.05 1655.29 3085.73 1638.49 3092.33 1611.13C3097.49 1589.89 3096.77 1539.26 3091.01 1520.42C3085.97 1504.11 3075.53 1491.15 3061.85 1484.43C3058.13 1482.63 3055.13 1480.83 3055.13 1480.35C3055.13 1479.99 3057.41 1478.55 3060.17 1477.35C3071.69 1472.19 3082.49 1457.19 3087.17 1439.67C3090.29 1428.39 3090.17 1381.72 3087.17 1369.48C3080.69 1343.93 3065.93 1328.81 3040.13 1321.25C3033.89 1319.45 3025.85 1319.21 2979.9 1318.73L2926.74 1318.37V1492.47ZM3021.05 1370.44C3026.57 1373.32 3030.77 1378.96 3032.93 1385.92C3035.33 1394.2 3035.45 1431.99 3033.05 1440.03C3030.53 1448.31 3026.69 1452.87 3019.25 1456.23C3013.37 1458.99 3010.61 1459.47 2996.7 1459.83L2980.74 1460.31V1413.88V1367.44L2999.1 1367.92C3013.13 1368.28 3018.17 1368.88 3021.05 1370.44ZM3015.05 1510.58C3025.13 1512.38 3031.25 1516.34 3035.09 1523.3C3039.77 1531.94 3040.97 1543.1 3040.49 1571.42C3040.13 1595.29 3040.01 1596.49 3037.01 1602.97C3034.73 1607.65 3032.45 1610.53 3029.21 1612.57C3024.77 1615.33 3023.33 1615.45 3002.69 1615.81L2980.74 1616.29V1562.78V1509.26H2994.3C3001.74 1509.26 3011.09 1509.86 3015.05 1510.58Z" fill="#E5DFD9"/>
<path d="M3309.52 1343.09V1367.68H3338.32H3367.12V1517.06V1666.45H3394.72H3422.32V1517.06V1367.68H3450.52H3478.72V1343.09V1318.49H3394.12H3309.52V1343.09Z" fill="#E5DFD9"/>
</svg>
